<svg width="271" height="301" viewBox="0 0 271 301" fill="none" xmlns="http://www.w3.org/2000/svg">
<path d="M135.982 0.990234C141.855 2.30503 147.852 3.22553 153.576 5.01734C165.027 8.61141 175.148 15.5343 182.648 24.9033C183.327 25.8066 184.286 26.4594 185.375 26.7595C203.783 29.687 215.55 43.2244 219.191 61.4801C222.027 75.6955 220.136 89.4612 214.55 102.741C214.117 103.68 213.881 104.699 213.855 105.733C213.83 106.767 214.016 107.796 214.402 108.756C217.007 116.282 215.854 123.943 214.806 131.628C213.208 143.338 207.602 152.259 197.461 158.376C197.056 158.676 196.718 159.057 196.467 159.495C196.216 159.932 196.059 160.417 196.005 160.918C195.347 171.682 190.328 180.256 182.712 187.485C181.922 188.181 181.303 189.051 180.903 190.026C180.503 191 180.334 192.054 180.407 193.105C180.543 200.917 180.376 208.734 180.538 216.546C180.608 218.03 181.23 219.436 182.282 220.486C187.994 225.512 193.787 230.459 199.745 235.191C204.85 239.171 210.834 241.871 217.196 243.064C225.033 244.731 232.571 247.581 239.551 251.514C248.536 256.434 257.516 261.361 266.493 266.296C271.196 268.871 271.365 273.248 266.797 275.994C253.164 284.188 238.208 288.924 222.812 292.267C184.174 300.658 145.052 302.35 105.695 300.058C81.8633 298.671 58.3216 295.333 35.2986 288.837C24.6632 285.835 14.3561 282.001 4.72961 276.481C2.60872 275.264 0.706255 273.907 0.699239 271.199C0.691752 268.305 2.80686 267.078 5.0484 265.877C15.452 260.302 25.6654 254.346 36.2565 249.158C41.8874 246.494 47.8028 244.478 53.8888 243.149C64.2091 240.771 72.2021 234.662 80.0345 228.174C83.5597 225.253 87.9466 222.564 89.8434 218.731C91.5201 215.342 90.3045 210.512 90.3268 206.319C90.3516 201.63 90.4757 196.934 90.2474 192.257C90.138 190.678 89.4965 189.182 88.4275 188.015C81.9592 181.516 76.4368 174.381 75.4619 165.008C74.9968 160.535 73.057 158.124 69.5662 155.658C60.8044 149.468 56.9372 140.367 55.6966 129.933C54.9448 123.61 54.1012 117.272 55.748 111.023C56.4573 108.506 57.6341 106.144 59.2169 104.062C59.6858 103.54 59.9993 102.897 60.1221 102.206C60.2448 101.515 60.172 100.804 59.9118 100.152C56.785 90.163 55.277 79.7378 55.4449 69.2721C55.9398 50.2634 64.0243 34.6283 77.63 21.7712C89.4093 10.4309 104.605 3.30015 120.856 1.48769C121.418 1.37168 121.968 1.20521 122.499 0.9903L135.982 0.990234ZM173.809 64.7555C161.397 79.0315 145.402 86.0032 127.448 88.4534C119.195 89.5796 110.691 88.8324 102.303 89.0092C98.8899 88.9926 95.479 89.185 92.0896 89.5853C85.7293 90.5075 82.2575 94.14 82.3824 100.044C82.5578 108.334 83.1494 116.616 83.5598 124.902C84.0083 133.958 85.1747 143.05 84.7183 152.061C84.14 163.477 87.4121 172.718 95.4315 180.89C101.415 186.987 106.467 194.002 111.894 200.64C113.313 202.375 114.534 204.271 115.93 206.026C117.039 207.526 118.482 208.749 120.144 209.599C121.806 210.448 123.642 210.901 125.509 210.921C131.85 211.01 138.194 210.964 144.536 210.99C146.549 211.006 148.537 210.556 150.346 209.675C152.155 208.793 153.735 207.504 154.961 205.909C156.763 203.735 158.238 201.292 160.014 199.094C164.604 193.414 168.733 187.213 174.044 182.297C183.243 173.781 187.09 163.797 186.143 151.411C185.655 145.026 186.195 138.551 186.457 132.124C186.56 129.61 187.503 127.116 187.5 124.614C187.485 112.782 186.606 101.013 184.052 89.4254C182.132 80.7113 179.45 72.2961 173.809 64.7555V64.7555ZM196.791 102.125C198.282 101.83 199.913 101.203 201.521 101.259C203.881 101.34 204.928 100.339 205.76 98.2421C210.348 86.6811 211.676 74.8302 209.21 62.6154C206.125 47.3279 196.723 38.7255 181.035 36.4C179.265 36.006 177.697 34.983 176.623 33.521C172.575 27.8629 167.403 23.1006 161.431 19.5317C130.769 1.11472 88.5232 13.6574 71.5905 46.0965C62.2094 64.0681 64.9365 82.2123 70.4849 100.44C70.6283 100.911 71.3104 101.219 72.0505 101.877C72.1696 100.696 72.2348 100.027 72.305 99.3574C73.5169 87.8173 80.2025 80.9013 91.8004 79.5826C96.1505 79.0879 100.568 79.116 104.956 79.0442C111.792 78.9324 118.763 79.7824 125.441 78.7309C142.851 75.9899 158.617 69.8055 168.968 54.216C170.643 51.6938 173.4 51.2577 175.908 53.0812C177.958 54.5701 179.811 56.3131 181.422 58.2683C186.45 64.4091 189.632 71.5626 191.632 79.1544C193.614 86.6799 195.067 94.3448 196.791 102.125L196.791 102.125ZM170.46 201.919C166.992 206.298 164.172 210.023 161.175 213.6C159.318 215.882 156.976 217.722 154.318 218.984C151.661 220.246 148.755 220.899 145.813 220.896C141.91 220.981 137.976 220.778 134.108 221.191C119.889 222.709 109.463 217.184 102.552 204.761C101.87 203.744 101.128 202.769 100.329 201.842C100.329 215.298 100.347 227.794 100.317 240.289C100.308 243.887 98.4833 245.972 95.4836 246.034C92.3994 246.097 90.4176 243.886 90.343 240.217C90.2963 237.918 90.3343 235.617 90.3343 232.839C89.5894 233.325 89.2838 233.499 89.0056 233.709C83.5647 237.825 78.0819 241.888 72.7401 246.129C72.3331 246.53 72.0226 247.018 71.8322 247.557C71.6418 248.096 71.5766 248.671 71.6413 249.239C72.5048 253.436 73.5992 257.583 74.9195 261.659C78.06 270.985 82.7678 279.426 91.0586 285.111C94.2535 287.302 98.1526 289.396 101.887 289.717C122.921 291.523 143.991 291.372 165.088 290.208C173.259 289.757 179.477 286.407 184.789 280.772C193.271 271.772 197.107 260.588 199.208 248.701C199.359 247.848 198.413 246.476 197.595 245.83C192.619 241.91 187.535 238.128 182.481 234.308C181.932 233.893 181.341 233.533 180.458 232.936C180.458 235.388 180.462 237.337 180.456 239.287C180.481 239.97 180.464 240.654 180.407 241.335C180.04 244.297 177.84 246.211 175.062 246.028C172.285 245.845 170.496 243.854 170.482 240.634C170.437 229.6 170.462 218.567 170.46 207.533C170.46 205.913 170.46 204.292 170.46 201.919ZM254.172 271.104C239.434 263.28 225.999 253.577 209.547 251.741C207.461 257.872 205.837 264.236 203.146 270.112C200.434 276.033 196.662 281.47 193.393 287.053C205.586 287.109 241.827 277.705 254.172 271.104H254.172ZM61.8293 251.743C44.6304 253.524 31.2769 263.375 16.5016 271.152C31.8621 278.52 70.5014 288.258 77.8512 286.678C69.5854 276.611 64.0658 264.575 61.8293 251.743V251.743ZM195.527 146.618L196.461 146.853C200.14 143.772 202.978 139.873 203.763 135.229C204.816 128.51 205.448 121.731 205.653 114.933C205.84 110.463 203.849 110.353 199.885 111.91C197.833 112.716 197.441 114.62 197.361 116.754C197.162 122.088 196.724 127.412 196.388 132.741C196.096 137.366 195.809 141.992 195.527 146.618ZM74.7156 147.162C74.8034 146.861 74.8718 146.555 74.9204 146.245C74.1709 135.55 73.5163 124.847 72.6008 114.166C72.3456 111.189 69.5497 111.32 67.3394 111.132C65.0391 110.936 65.264 112.911 65.14 114.182C64.445 121.585 65.1782 129.053 67.2997 136.18C68.6101 140.504 71.1947 144.331 74.7156 147.162V147.162Z" fill="#FFC22C"/>
</svg>
